# xmcd
# 
# Track frame offsets:
#     187
#     30007
#     90460
#     146512
#     184105
# 
# Disc length: 3549
# 
# Revision: 1
# Processed by: cddbd v1.5.2PL0 Copyright (c) Steve Scherf et al.
# Submitted via: BonkEnc v1.0.6
# 
DISCID=300ddb05
DTITLE=Stan Getz - Live at Montmartre
DYEAR=1977
DGENRE=Jazz
TTITLE0=Infant Eyes
TTITLE1=Lester Leaps In
TTITLE2=Eider Left Town
TTITLE3=Blues For Dorte
TTITLE4=Con Alma
EXTD=
EXTT0=
EXTT1=
EXTT2=
EXTT3=
EXTT4=
PLAYORDER=
